Coordinates
version=1
nRows=38
nColumns=12
inDegrees=yes

Units are S.I. units (second, meters, Newtons, ...)
Angles are in degrees

endheader
time	SC_y	SC_z	SC_x	AC_y	AC_z	AC_x	GH_y	GH_z	GH_yy	EL_x	PS_y
       0.0              -43.88          9.701          10.42          44.06        -0.6627          13.64         -12.09          72.88          61.48          133.6          73.27
   0.03563              -43.88          9.704          10.43          44.06        -0.6635          13.64         -12.08          72.88          61.46          133.6          73.26
   0.07127              -43.88          9.708          10.43          44.05        -0.6645          13.64         -12.07          72.87          61.44          133.6          73.25
    0.1069              -43.88          9.713          10.44          44.05        -0.6654          13.64         -12.06          72.87          61.42          133.6          73.25
    0.1425              -43.89          9.717          10.45          44.05        -0.6665          13.64         -12.04          72.86           61.4          133.6          73.24
    0.1782              -43.89          9.722          10.46          44.05        -0.6676          13.64         -12.03          72.86          61.38          133.6          73.23
    0.2138              -43.89          9.727          10.47          44.05        -0.6688          13.64         -12.02          72.85          61.36          133.6          73.22
    0.2494              -43.89          9.732          10.47          44.05        -0.6701          13.64          -12.0          72.84          61.33          133.6          73.21
    0.2851              -43.89          9.738          10.48          44.04        -0.6714          13.64         -11.99          72.84           61.3          133.6           73.2
    0.3207              -43.89          9.745          10.49          44.04        -0.6729          13.64         -11.97          72.83          61.27          133.5          73.19
    0.3563              -43.89          9.751          10.51          44.04        -0.6745          13.64         -11.95          72.82          61.24          133.5          73.18
     0.392              -43.89          9.759          10.52          44.04        -0.6762          13.64         -11.93          72.81          61.21          133.5          73.16
    0.4276              -43.89          9.766          10.53          44.03         -0.678          13.64         -11.91           72.8          61.17          133.5          73.15
    0.4633              -43.89          9.775          10.54          44.03          -0.68          13.64         -11.89          72.79          61.14          133.5          73.13
    0.4989              -43.89          9.784          10.56          44.03        -0.6821          13.64         -11.86          72.78          61.09          133.5          73.12
    0.5345               -43.9          9.794          10.58          44.02        -0.6844          13.64         -11.84          72.77          61.05          133.5           73.1
    0.5702               -43.9          9.805          10.59          44.02        -0.6869          13.64         -11.81          72.76           61.0          133.5          73.08
    0.6058               -43.9          9.817          10.61          44.01        -0.6897          13.64         -11.77          72.75          60.94          133.5          73.06
    0.6414               -43.9          9.829          10.63          44.01        -0.6927          13.64         -11.74          72.73          60.89          133.5          73.03
    0.6771               -43.9          9.844          10.66           44.0        -0.6959          13.64          -11.7          72.72          60.82          133.5          73.01
    0.7127               -43.9          9.859          10.68           44.0        -0.6995          13.64         -11.66           72.7          60.75          133.5          72.98
    0.7483              -43.91          9.876          10.71          43.99        -0.7035          13.64         -11.61          72.68          60.67          133.5          72.95
     0.784              -43.91          9.895          10.74          43.99        -0.7079          13.64         -11.56          72.66          60.59          133.4          72.92
    0.8196              -43.91          9.916          10.78          43.98        -0.7127          13.63         -11.51          72.63          60.49          133.4          72.88
    0.8552              -43.91          9.939          10.82          43.97        -0.7181          13.63         -11.44          72.61          60.38          133.4          72.84
    0.8909              -43.92          9.965          10.86          43.96        -0.7241          13.63         -11.37          72.58          60.27          133.4          72.79
    0.9265              -43.92          9.993          10.91          43.95        -0.7309          13.63          -11.3          72.54          60.13          133.4          72.74
    0.9621              -43.93          10.03          10.96          43.94        -0.7384          13.63         -11.21          72.51          59.98          133.4          72.68
    0.9978              -43.93          10.06          11.02          43.92         -0.747          13.63         -11.11          72.46          59.82          133.3          72.61
     1.033              -43.94           10.1          11.09          43.91        -0.7567          13.63          -11.0          72.42          59.62          133.3          72.54
     1.069              -43.94          10.15          11.17          43.89        -0.7678          13.62         -10.87          72.36          59.41          133.3          72.45
     1.105              -43.95          10.21          11.26          43.87        -0.7805          13.62         -10.72           72.3          59.15          133.2          72.35
      1.14              -43.96          10.27          11.36          43.85        -0.7952          13.62         -10.55          72.23          58.86          133.2          72.24
     1.176              -43.97          10.34          11.48          43.82        -0.8123          13.61         -10.35          72.14          58.53          133.1           72.1
     1.212              -43.98          10.43          11.63          43.79        -0.8323          13.61         -10.12          72.05          58.13          133.1          71.95
     1.247              -43.99          10.53          11.79          43.75        -0.8558          13.61         -9.843          71.93          57.67          133.0          71.76
     1.283              -44.01          10.65          11.99          43.71        -0.8838           13.6         -9.518          71.79          57.12          132.9          71.55
     1.318              -44.03          10.79          12.23          43.66        -0.9174          13.59         -9.128          71.63          56.46          132.8          71.28
